<svg xmlns="http://www.w3.org/2000/svg" viewBox="0 0 97.60 66.40" width="98" height="66">
  <g><path d="M2.2960000000000003 11.199999999999996H10.024000000000001L16.016000000000002 34.664H16.128V11.199999999999996H21.616V50.4H15.288L7.896 21.784H7.784V50.4H2.2960000000000003Z" fill="#ffffff"/><path d="M30.968 11.199999999999996H39.312L45.696 50.4H39.536L38.416 42.616V42.727999999999994H31.416L30.296 50.4H24.584ZM37.688 37.408 34.944 18.031999999999996H34.832L32.144 37.408Z" fill="#ffffff"/><path d="M43.48 16.799999999999997H37.03999999999999V11.199999999999996H56.08V16.799999999999997H49.63999999999999V50.4H43.48Z" fill="#ffffff"/><path d="M56.047999999999995 11.199999999999996H62.208V27.159999999999997H68.816V11.199999999999996H74.976V50.4H68.816V32.76H62.208V50.4H56.047999999999995Z" fill="#ffffff"/><path d="M79.568 11.199999999999996H96.368V16.799999999999997H85.728V27.159999999999997H94.184V32.76H85.728V44.8H96.368V50.4H79.568Z" fill="#ffffff"/></g>
  <g transform="translate(0,53.40) scale(2.02801,1)"><path d="M0.442 9.594V4.7059999999999995Q0.442 3.639999999999999 0.9814999999999999 3.054999999999999Q1.521 2.469999999999999 2.548 2.469999999999999Q3.5749999999999997 2.469999999999999 4.1145 3.054999999999999Q4.654 3.639999999999999 4.654 4.7059999999999995V5.667999999999999H3.302V4.614999999999999Q3.302 3.7699999999999996 2.5869999999999997 3.7699999999999996Q1.8719999999999999 3.7699999999999996 1.8719999999999999 4.614999999999999V9.698Q1.8719999999999999 10.53 2.5869999999999997 10.53Q3.302 10.53 3.302 9.698V8.306999999999999H4.654V9.594Q4.654 10.66 4.1145 11.245000000000001Q3.5749999999999997 11.83 2.548 11.83Q1.521 11.83 0.9814999999999999 11.245000000000001Q0.442 10.66 0.442 9.594Z" fill="#ffffff" opacity="0.82"/><path d="M5.408 9.542V4.758Q5.408 3.6660000000000004 5.9670000000000005 3.0679999999999996Q6.526 2.469999999999999 7.579000000000001 2.469999999999999Q8.632 2.469999999999999 9.190999999999999 3.0679999999999996Q9.75 3.6660000000000004 9.75 4.758V9.542Q9.75 10.633999999999999 9.190999999999999 11.232Q8.632 11.83 7.579000000000001 11.83Q6.526 11.83 5.9670000000000005 11.232Q5.408 10.633999999999999 5.408 9.542ZM8.32 9.633V4.667Q8.32 3.7699999999999996 7.579000000000001 3.7699999999999996Q6.838 3.7699999999999996 6.838 4.667V9.633Q6.838 10.53 7.579000000000001 10.53Q8.32 10.53 8.32 9.633Z" fill="#ffffff" opacity="0.82"/><path d="M10.712 2.5999999999999996H12.506L13.897 8.046999999999999H13.923V2.5999999999999996H15.197V11.7H13.728L12.012 5.0569999999999995H11.986V11.7H10.712Z" fill="#ffffff" opacity="0.82"/><path d="M16.016000000000002 9.542V9.021999999999998H17.368000000000002V9.645999999999999Q17.368000000000002 10.53 18.109 10.53Q18.473 10.53 18.6615 10.3155Q18.85 10.100999999999999 18.85 9.62Q18.85 9.048 18.590000000000003 8.6125Q18.330000000000002 8.177 17.628 7.566Q16.744 6.786 16.393 6.1555Q16.042 5.5249999999999995 16.042 4.731999999999999Q16.042 3.6530000000000005 16.588 3.0614999999999997Q17.134 2.469999999999999 18.174 2.469999999999999Q19.201 2.469999999999999 19.7275 3.0614999999999997Q20.254 3.6530000000000005 20.254 4.758V5.135H18.902V4.667Q18.902 4.199 18.72 3.9844999999999997Q18.538 3.7699999999999996 18.187 3.7699999999999996Q17.472 3.7699999999999996 17.472 4.641Q17.472 5.135 17.738500000000002 5.564Q18.005 5.992999999999999 18.707 6.603999999999999Q19.604 7.3839999999999995 19.942 8.020999999999999Q20.28 8.658 20.28 9.516Q20.28 10.633999999999999 19.7275 11.232Q19.175 11.83 18.122 11.83Q17.082 11.83 16.549 11.238499999999998Q16.016000000000002 10.646999999999998 16.016000000000002 9.542Z" fill="#ffffff" opacity="0.82"/><path d="M21.047 9.542V2.5999999999999996H22.477V9.645999999999999Q22.477 10.113999999999999 22.6655 10.322Q22.854 10.53 23.205 10.53Q23.555999999999997 10.53 23.7445 10.322Q23.933 10.113999999999999 23.933 9.645999999999999V2.5999999999999996H25.311V9.542Q25.311 10.646999999999998 24.765 11.238499999999998Q24.218999999999998 11.83 23.179 11.83Q22.139 11.83 21.593 11.238499999999998Q21.047 10.646999999999998 21.047 9.542Z" fill="#ffffff" opacity="0.82"/><path d="M26.325 2.5999999999999996H27.755V10.399999999999999H30.107999999999997V11.7H26.325Z" fill="#ffffff" opacity="0.82"/><path d="M31.914999999999996 3.8999999999999995H30.419999999999995V2.5999999999999996H34.839999999999996V3.8999999999999995H33.345V11.7H31.914999999999996Z" fill="#ffffff" opacity="0.82"/><path d="M35.528999999999996 2.5999999999999996H36.958999999999996V11.7H35.528999999999996Z" fill="#ffffff" opacity="0.82"/><path d="M38.025 2.5999999999999996H39.818999999999996L41.209999999999994 8.046999999999999H41.236V2.5999999999999996H42.51V11.7H41.041L39.324999999999996 5.0569999999999995H39.299V11.7H38.025Z" fill="#ffffff" opacity="0.82"/><path d="M43.472 9.542V4.758Q43.472 3.6530000000000005 44.018 3.0614999999999997Q44.564 2.469999999999999 45.604 2.469999999999999Q46.644 2.469999999999999 47.19 3.0614999999999997Q47.736 3.6530000000000005 47.736 4.758V5.537999999999999H46.384V4.667Q46.384 3.7699999999999996 45.643 3.7699999999999996Q44.902 3.7699999999999996 44.902 4.667V9.645999999999999Q44.902 10.53 45.643 10.53Q46.384 10.53 46.384 9.645999999999999V7.864999999999999H45.669V6.5649999999999995H47.736V9.542Q47.736 10.646999999999998 47.19 11.238499999999998Q46.644 11.83 45.604 11.83Q44.564 11.83 44.018 11.238499999999998Q43.472 10.646999999999998 43.472 9.542Z" fill="#ffffff" opacity="0.82"/></g>
</svg>
