<svg xmlns="http://www.w3.org/2000/svg" viewBox="0 0 77.90 42.60" width="78" height="43">
  <g><path d="M1.8039999999999998 8.799999999999997H7.8759999999999994L12.584 27.235999999999997H12.671999999999999V8.799999999999997H16.983999999999998V39.599999999999994H12.011999999999999L6.204 17.115999999999996H6.116V39.599999999999994H1.8039999999999998Z" fill="#e38f18"/><path d="M24.332 8.799999999999997H30.887999999999998L35.903999999999996 39.599999999999994H31.064L30.183999999999997 33.483999999999995V33.571999999999996H24.684L23.804000000000002 39.599999999999994H19.316ZM29.612000000000002 29.391999999999996 27.456 14.167999999999996H27.368000000000002L25.256 29.391999999999996Z" fill="#e38f18"/><path d="M36.019999999999996 13.199999999999996H30.959999999999997V8.799999999999997H45.92V13.199999999999996H40.86V39.599999999999994H36.019999999999996Z" fill="#e38f18"/><path d="M45.251999999999995 8.799999999999997H50.09199999999999V21.339999999999996H55.28399999999999V8.799999999999997H60.123999999999995V39.599999999999994H55.28399999999999V25.739999999999995H50.09199999999999V39.599999999999994H45.251999999999995Z" fill="#e38f18"/><path d="M63.732 8.799999999999997H76.932V13.199999999999996H68.572V21.339999999999996H75.216V25.739999999999995H68.572V35.199999999999996H76.932V39.599999999999994H63.732Z" fill="#e38f18"/></g>
</svg>
